<svg width="1025" height="360" viewBox="0 0 1025 360" fill="none" xmlns="http://www.w3.org/2000/svg">
<path d="M189.954 140.954C183.896 162.442 174.437 187.463 168.571 209.023C118.799 213.244 72.5872 214.624 22.9402 220.159C15.214 213.527 7.56731 206.78 0 199.919C13.8413 140.195 28.2214 80.6092 43.1404 21.1622C37.95 12.8058 35.3633 8.50104 30.1728 0C89.1683 6.49938 148.249 12.0521 207.415 16.6584C212.52 23.622 215.209 27.0586 220.399 33.8594C215.521 50.5721 210.693 67.3029 205.917 84.0517C182.285 83.5332 158.653 82.9846 135.02 82.4058C138.424 69.6482 141.901 56.8966 145.452 44.1511L110.123 41.9806C97.8702 87.6692 85.9577 133.448 74.3855 179.318L110.123 176.966C113.152 165.632 116.204 154.303 119.279 142.98C142.809 142.257 166.367 141.582 189.954 140.954Z" fill="#0FB9FD"/>
<path d="M223.55 163.981C216.37 158.671 212.834 155.966 205.614 150.471C216.678 111.424 228.015 72.4809 239.624 33.6427C235.606 28.2896 233.489 25.5988 229.39 20.1318C275.952 23.4063 322.545 25.9358 369.169 27.7201C373.334 32.3898 375.424 34.7105 379.59 39.3232C367.82 74.7161 356.211 110.185 344.763 145.73C336.913 150.499 332.975 152.848 325.125 157.831C291.271 159.501 257.413 161.552 223.55 163.981ZM292.495 46.5128C282.922 76.8848 273.545 107.338 264.365 137.871C273.759 137.491 283.136 137.121 292.495 136.76C301.612 106.948 310.9 77.1933 320.357 47.4952C311.06 47.182 301.773 46.8545 292.495 46.5128Z" fill="#0FB9FD"/>
<path d="M528.587 74.8058C509.888 74.8058 491.188 74.7821 472.488 74.7346C475.114 66.6956 477.744 58.6517 480.378 50.6031C471.082 50.5462 461.79 50.4654 452.503 50.361C448.931 60.6875 445.359 71.0046 441.787 81.3121C465.308 81.388 488.826 81.4307 512.339 81.4401C516.357 85.7112 518.286 87.918 522.238 92.246C515.299 112.557 508.36 132.878 501.422 153.208C461.986 153.427 422.573 154.172 383.183 155.443C376.123 150.646 372.601 148.225 365.555 143.342C368.895 133.224 372.252 123.107 375.628 112.989C394.158 112.771 412.683 112.595 431.204 112.462L424.319 133.262L452.543 132.892C455.999 122.642 459.468 112.391 462.951 102.141C442.572 102.141 422.194 102.212 401.815 102.354C394.368 97.3427 390.63 94.8228 383.183 89.7118C388.621 73.0262 394.104 56.3548 399.632 39.6976C395.613 35.1988 393.591 32.9351 389.559 28.3936C436.192 29.8172 482.829 30.5054 529.471 30.4579L539.678 41.2352L528.587 74.8058Z" fill="#0FB9FD"/>
<path d="M524.056 153.187C536.683 115.839 549.283 78.4816 561.857 41.1145L551.743 30.3656C575.265 30.1473 598.783 29.7535 622.296 29.184C626.395 33.5547 628.444 35.733 632.53 40.1322L634.217 106.903C649.273 80.5364 664.106 54.0226 678.716 27.3616C700.711 26.4694 722.697 25.4254 744.674 24.2295C748.773 28.7711 750.809 31.049 754.908 35.619C742.477 76.5073 729.725 117.282 716.651 157.942C698.121 157.06 679.596 156.286 661.075 155.622C671.344 124.301 681.476 92.8987 691.468 61.4162C674.296 92.7943 656.779 123.959 638.919 154.91C628.006 154.578 617.089 154.298 606.168 154.07L604.159 81.1486C596.032 105.313 587.857 129.459 579.632 153.586C561.111 153.377 542.586 153.244 524.056 153.187Z" fill="#0FB9FD"/>
<path d="M739.48 159.007C752.393 117.682 764.975 76.2336 777.227 34.6619C773.209 29.921 771.293 27.5434 767.328 22.888C785.84 21.73 804.344 20.4725 822.838 19.1152C827.004 23.9842 829.08 26.4472 833.233 31.4158C820.909 75.2654 808.166 118.973 795.003 162.538C776.508 161.256 758.001 160.079 739.48 159.007Z" fill="#0FB9FD"/>
<path d="M994.528 138.961C988.658 159.78 979.493 186.213 973.81 207.102C925.587 211.191 880.812 210.339 832.71 215.701C825.224 209.275 817.816 202.739 810.484 196.091C823.894 138.225 837.827 80.4936 852.282 22.8963C847.253 14.8 844.747 10.6291 839.718 2.39258C896.878 8.68973 952.669 9.55501 1009.99 14.0179C1014.94 20.7649 1019 28.6092 1024.03 35.1984C1019.3 51.3911 1014.62 67.6013 1009.99 83.829C987.097 83.3266 964.2 82.7951 941.303 82.2343C944.601 69.8737 947.97 57.5189 951.41 45.1699L917.18 43.0669C905.309 87.3339 893.767 131.689 882.555 176.131L917.18 173.853C920.115 162.87 923.072 151.894 926.051 140.924C948.849 140.223 971.675 139.569 994.528 138.961Z" fill="#0FB9FD"/>
<path d="M294.641 291.956L308.773 359.633H261.972L247.55 291.78H238.614L221.448 359.633H171.114L205.778 211.203L196.884 196.537H324.692L333.919 210.717L315.049 291.956H294.641ZM254.574 223.617L244.765 264.567H270.535L280.053 223.617H254.574Z" fill="white"/>
<path d="M309.15 323.153L352.79 207.832L345.748 196.537H413.582L421.206 207.832L431.478 323.153H394.75L391.52 285.766H362.997L348.817 323.153H309.15ZM371.138 264.48H389.614L386.061 225.067L371.138 264.48Z" fill="white"/>
<path d="M435.942 322.684L440.782 304.472L430.059 207.604L422.888 196.068H647.147L655.444 208.045L650.11 221.603H611.59L588.477 322.684L563.587 322.787L554.698 304.472L570.698 221.603H542.495H485.988L475.628 228.668L469.614 248.768H518.951L516.512 259.411L504.078 270.054H469.614L481.279 322.787L435.942 322.684Z" fill="white"/>
<path d="M779.58 255.101H728.612L735.763 223.293H710.466L700.669 263.844H764.906L773.917 278.122L754.985 358.565H647.51L631.471 342.529L640.648 304.395H691.161L684.878 331.326H710.548L719.973 291.083H664.458L647.51 274.871L662.474 210.64L653.297 196.537H780.407L789.749 210.816L779.58 255.101Z" fill="white"/>
</svg>
